<svg width="75" height="34" fill="none" xmlns="http://www.w3.org/2000/svg"><path d="M.193 12.425c0-.333.133-.652.369-.89.237-.239.558-.376.897-.384H8.67c5.113 0 8.477 2.676 8.477 7.06v.06c0 4.798-4.077 7.286-8.899 7.286H2.754v6.734a1.244 1.244 0 0 1-.332.965 1.285 1.285 0 0 1-.948.41 1.304 1.304 0 0 1-.949-.41 1.26 1.26 0 0 1-.332-.965V12.425ZM8.35 23.286c3.746 0 6.207-1.975 6.207-4.937v-.059c0-3.18-2.42-4.828-6.026-4.828H2.805v9.785l5.544.04ZM22.019 12.267a1.243 1.243 0 0 1 .332-.965 1.286 1.286 0 0 1 .948-.41 1.304 1.304 0 0 1 .949.41 1.258 1.258 0 0 1 .332.965V32.29a1.245 1.245 0 0 1-.332.965 1.284 1.284 0 0 1-.949.41 1.304 1.304 0 0 1-.948-.41 1.26 1.26 0 0 1-.332-.965V12.267ZM31.199 12.296c.007-.326.144-.637.38-.867.235-.23.553-.362.885-.367h.352c.26.006.516.075.743.203.226.127.416.31.553.528l13.75 17.23V12.237c0-.325.13-.636.364-.866a1.256 1.256 0 0 1 1.762 0c.233.23.364.541.364.866v20.094a1.11 1.11 0 0 1-.327.829 1.145 1.145 0 0 1-.838.336h-.13a1.74 1.74 0 0 1-.756-.23 1.706 1.706 0 0 1-.57-.54L33.669 15.09v17.24a1.234 1.234 0 0 1-.352.853c-.224.23-.53.366-.853.381a1.256 1.256 0 0 1-.871-.369 1.214 1.214 0 0 1-.354-.865V12.296h-.04ZM56.74 12.267a1.245 1.245 0 0 1 .332-.965 1.284 1.284 0 0 1 .949-.41 1.304 1.304 0 0 1 .948.41 1.259 1.259 0 0 1 .332.965v12.175l12.897-13.005c.264-.269.624-.428 1.004-.444.329.013.64.149.87.38.23.232.36.54.365.864a1.256 1.256 0 0 1-.421.889l-8.035 7.82 8.667 10.427c.227.258.352.587.352.928a1.277 1.277 0 0 1-.41.91 1.32 1.32 0 0 1-.946.354 1.261 1.261 0 0 1-.574-.164c-.175-.1-.323-.24-.43-.409l-8.457-10.357-4.882 4.798v4.839a1.236 1.236 0 0 1-.373.886 1.278 1.278 0 0 1-.902.368 1.293 1.293 0 0 1-.902-.368 1.252 1.252 0 0 1-.374-.886V12.267h-.01Z" fill="#fff"/><path d="M26.94 3.746a3.678 3.678 0 0 1-2.575-1.047 3.554 3.554 0 0 1-1.07-2.528c0 .948-.384 1.857-1.066 2.528a3.668 3.668 0 0 1-2.57 1.047c.964.002 1.89.381 2.57 1.053a3.554 3.554 0 0 1 1.065 2.53c.003-.949.388-1.86 1.07-2.53a3.688 3.688 0 0 1 2.576-1.053Z" fill="#D22856"/></svg>